<svg t="1684078783439" class="icon" viewBox="0 0 1024 1024" version="1.1" xmlns="http://www.w3.org/2000/svg" p-id="3372" width="200" height="200">
  <path d="M362.666667 192m-64 0a64 64 0 1 0 128 0 64 64 0 1 0-128 0Z" fill="currentColor" p-id="3373"></path>
  <path d="M661.333333 192m-64 0a64 64 0 1 0 128 0 64 64 0 1 0-128 0Z" fill="currentColor" p-id="3374"></path>
  <path d="M362.666667 512m-64 0a64 64 0 1 0 128 0 64 64 0 1 0-128 0Z" fill="currentColor" p-id="3375"></path>
  <path d="M661.333333 512m-64 0a64 64 0 1 0 128 0 64 64 0 1 0-128 0Z" fill="currentColor" p-id="3376"></path>
  <path d="M362.666667 832m-64 0a64 64 0 1 0 128 0 64 64 0 1 0-128 0Z" fill="currentColor" p-id="3377"></path>
  <path d="M661.333333 832m-64 0a64 64 0 1 0 128 0 64 64 0 1 0-128 0Z" fill="currentColor" p-id="3378"></path>
</svg>
